<svg width="46" height="33" viewBox="0 0 46 33" fill="none" xmlns="http://www.w3.org/2000/svg">
<path d="M32.0001 31.5001C32.0001 31.8979 31.8421 32.2795 31.5608 32.5608C31.2795 32.8421 30.8979 33.0001 30.5001 33.0001L3.5001 33.0001C3.10227 33.0001 2.72074 32.8421 2.43944 32.5608C2.15813 32.2795 2.0001 31.8979 2.0001 31.5001C2.0001 31.1023 2.15813 30.7208 2.43944 30.4395C2.72074 30.1581 3.10227 30.0001 3.5001 30.0001L30.5001 30.0001C30.8979 30.0001 31.2795 30.1581 31.5608 30.4395C31.8421 30.7208 32.0001 31.1023 32.0001 31.5001ZM45.4738 8.46574C45.4346 8.67451 45.3514 8.87256 45.2299 9.04679C45.1084 9.22101 44.9512 9.36743 44.7688 9.47636L17.1295 25.9764C15.9774 26.652 14.6663 27.0092 13.3307 27.0114C11.4282 27.0092 9.59839 26.2801 8.21572 24.9732L8.19322 24.9507L1.4376 18.3376C1.08017 17.9982 0.811876 17.5759 0.656453 17.1081C0.50103 16.6404 0.463264 16.1415 0.546493 15.6557C0.629721 15.1698 0.831381 14.712 1.13364 14.3226C1.4359 13.9332 1.82944 13.6243 2.27947 13.4232L2.84197 13.1476C3.1972 12.9732 3.60696 12.9463 3.98197 13.0726L9.28072 14.8614L13.0626 12.5739L8.96947 8.60074C8.60137 8.26161 8.32397 7.83578 8.16253 7.36202C8.00109 6.88827 7.96075 6.38165 8.04518 5.88832C8.12961 5.39498 8.33612 4.93061 8.64591 4.5375C8.9557 4.14439 9.35892 3.83504 9.81885 3.63761L9.87885 3.61324L11.2195 3.10511C11.5575 2.97908 11.9296 2.97908 12.2676 3.10511L22.3813 6.82136L32.0507 1.05011C33.5916 0.133028 35.4111 -0.19886 37.1766 0.115121C38.942 0.429102 40.5355 1.36798 41.6657 2.76011L41.6882 2.78824L45.1832 7.26761C45.3138 7.43533 45.4072 7.62888 45.4573 7.83544C45.5074 8.042 45.5131 8.25684 45.4738 8.46574ZM41.7726 7.77199L39.3351 4.64636C38.6567 3.81642 37.703 3.25742 36.6474 3.07094C35.5918 2.88445 34.5043 3.08286 33.5826 3.63011L23.3076 9.76511C23.1152 9.87922 22.8998 9.94917 22.677 9.96992C22.4543 9.99067 22.2297 9.96171 22.0195 9.88511L11.7501 6.10886L11.0001 6.39574L11.0395 6.43324L16.5445 11.7751C16.7089 11.9349 16.8345 12.1302 16.9116 12.346C16.9888 12.5619 17.0155 12.7926 16.9896 13.0203C16.9637 13.2481 16.8859 13.4669 16.7623 13.6599C16.6386 13.853 16.4724 14.0151 16.2763 14.1339L10.237 17.7882C10.0501 17.9011 9.84094 17.9718 9.62396 17.9954C9.40699 18.0191 9.18747 17.9951 8.98072 17.9251L3.6051 16.112L3.56947 16.1307L3.5001 16.1626C3.50913 16.1691 3.51732 16.1766 3.52447 16.1851L10.2745 22.7964C10.9789 23.4583 11.8789 23.8742 12.8396 23.9817C13.8002 24.0892 14.7699 23.8825 15.6032 23.3926L41.7726 7.77199Z" fill="#F7F7F7"/>
</svg>
