<svg width="28" height="33" viewBox="0 0 28 33" fill="none" xmlns="http://www.w3.org/2000/svg">
<path d="M9.23813 8.45485C10.139 8.63419 12.7215 9.35155 12.7215 9.35155C12.7215 9.35155 13.3825 9.65045 14.884 9.35155C16.4456 8.99287 16.8056 8.45497 18.7275 8.27563C20.1689 8.03651 21.6708 8.27598 22.9921 8.93356C24.4335 9.53136 26.0549 11.5635 26.0549 11.5635C23.7126 12.7591 22.2713 15.2702 22.5716 17.9006C22.6917 20.5907 24.3135 22.9815 26.7159 24.1173C29.1784 25.3129 25.0343 28.7804 22.812 30.9325C20.5898 33.0846 18.7879 32.6062 18.7879 32.6062C17.5867 32.1877 16.3253 31.8292 15.0641 31.5303C13.5025 31.2912 13.9232 31.3511 12.6018 31.65C11.2805 31.8891 11.1599 32.2474 10.0188 32.4865C9.41819 32.6659 8.69759 32.7258 8.03693 32.6062C7.55645 32.5464 7.01626 32.3672 6.59584 32.1281C5.03428 30.8129 3.71273 29.2588 2.75177 27.4654C1.79081 25.4926 1.01014 23.46 0.469604 21.3677C0.169304 19.6341 0.109126 17.9006 0.349366 16.1072C0.649666 13.5964 0.829729 13.2375 2.03093 11.3843C2.81171 10.2485 3.89267 9.29177 5.21399 8.75375C5.93471 8.51463 6.71596 8.39554 7.49674 8.33576" fill="#F7F7F7"/>
<path d="M13.0253 7.66455C12.8452 6.46895 13.6262 3.36028 15.3679 1.86578C16.5691 0.849518 17.9504 0.251951 19.4519 0.0128312C20.8933 -0.226289 19.4518 2.94193 18.731 4.07775C18.1304 5.09401 17.2899 5.99071 16.389 6.76785C15.5482 7.30587 14.5869 7.66455 13.6259 7.96345C13.0253 8.08301 13.0253 7.66455 13.0253 7.66455Z" fill="#F7F7F7"/>
</svg>
