<svg width="55" height="57" viewBox="0 0 55 57" fill="none" xmlns="http://www.w3.org/2000/svg">
<path fill-rule="evenodd" clip-rule="evenodd" d="M20.9619 32.1801C20.4256 32.9576 19.3554 33.156 18.5717 32.6202C18.0858 32.2896 17.8269 31.7538 17.8269 31.2088C17.8269 30.876 17.9254 30.5385 18.1294 30.2421C20.3637 27.0022 24.5552 21.569 27.4977 21.569C30.4379 21.569 34.6317 27.0022 36.8683 30.2421C37.4046 31.0264 37.2075 32.0866 36.426 32.6202C35.6446 33.156 34.5744 32.9599 34.0358 32.1801C31.5379 28.5686 28.451 25.2033 27.4267 24.9844C26.5444 25.2033 23.4575 28.5686 20.9619 32.1801ZM49.8437 27.9302C49.8437 11.5165 43.9954 5.7002 27.5 5.70019C11.0023 5.70019 5.15625 11.5165 5.15625 27.9302C5.15625 44.3416 11.0023 50.1602 27.5 50.1602C43.9954 50.1602 49.8437 44.3416 49.8437 27.9302Z" fill="#365EFC"/>
</svg>
