<svg width="21" height="21" viewBox="0 0 21 21" fill="none" xmlns="http://www.w3.org/2000/svg">
<path d="M15 7H16C17.0609 7 18.0783 7.42143 18.8284 8.17157C19.5786 8.92172 20 9.93913 20 11C20 12.0609 19.5786 13.0783 18.8284 13.8284C18.0783 14.5786 17.0609 15 16 15H15" stroke="#F7F7F7" stroke-width="2" stroke-linecap="round" stroke-linejoin="round"/>
<path d="M1 7H15V16C15 17.0609 14.5786 18.0783 13.8284 18.8284C13.0783 19.5786 12.0609 20 11 20H5C3.93913 20 2.92172 19.5786 2.17157 18.8284C1.42143 18.0783 1 17.0609 1 16V7Z" stroke="#F7F7F7" stroke-width="2" stroke-linecap="round" stroke-linejoin="round"/>
<path d="M4 1V3" stroke="#F7F7F7" stroke-width="2" stroke-linecap="round" stroke-linejoin="round"/>
<path d="M8 1V3" stroke="#F7F7F7" stroke-width="2" stroke-linecap="round" stroke-linejoin="round"/>
<path d="M12 1V3" stroke="#F7F7F7" stroke-width="2" stroke-linecap="round" stroke-linejoin="round"/>
</svg>
