<svg width="160" height="160" viewBox="0 0 160 160" fill="none" xmlns="http://www.w3.org/2000/svg">
<rect width="160" height="160" rx="80" fill="#F7F7F7"/>
<path fill-rule="evenodd" clip-rule="evenodd" d="M96.1008 99.1135C96.1008 100.428 95.0341 101.495 93.7197 101.495C92.4054 101.495 91.3386 100.428 91.3386 99.1135V89.0908C91.3386 87.7764 92.4054 86.7097 93.7197 86.7097C95.0341 86.7097 96.1008 87.7764 96.1008 89.0908V99.1135ZM81.881 99.1135C81.881 100.428 80.8143 101.495 79.4999 101.495C78.1856 101.495 77.1189 100.428 77.1189 99.1135V67.6897C77.1189 66.3722 78.1856 65.3086 79.4999 65.3086C80.8143 65.3086 81.881 66.3722 81.881 67.6897V99.1135ZM67.4233 99.1135C67.4233 100.428 66.3565 101.495 65.0422 101.495C63.7278 101.495 62.6611 100.428 62.6611 99.1135V77.8617C62.6611 76.5473 63.7278 75.4806 65.0422 75.4806C66.3565 75.4806 67.4233 76.5473 67.4233 77.8617V99.1135ZM79.4999 51C55.502 51 47 59.502 47 83.5C47 107.498 55.502 116 79.4999 116C103.495 116 112 107.498 112 83.5C112 59.502 103.495 51 79.4999 51Z" fill="#365EFC"/>
</svg>
