<svg width="54" height="54" viewBox="0 0 54 54" fill="none" xmlns="http://www.w3.org/2000/svg">
<path fill-rule="evenodd" clip-rule="evenodd" d="M38.3413 20.6998C39.078 21.2706 39.2125 22.3306 38.6417 23.0673L32.0513 31.5731C31.776 31.9284 31.3703 32.1592 30.9242 32.2143C30.4781 32.2694 30.0284 32.1442 29.6749 31.8665L23.3334 26.8851L17.6383 34.2871C17.07 35.0257 16.0105 35.1638 15.2718 34.5955C14.5332 34.0271 14.3951 32.9676 14.9634 32.229L21.698 23.4761C21.9727 23.1191 22.3788 22.8867 22.8258 22.8307C23.2728 22.7748 23.7236 22.8999 24.0778 23.1781L30.4239 28.1631L35.9738 21.0002C36.5446 20.2635 37.6046 20.129 38.3413 20.6998Z" fill="#F7F7F7"/>
<path fill-rule="evenodd" clip-rule="evenodd" d="M44.9896 6.81299C43.533 6.81299 42.3522 7.99381 42.3522 9.45043C42.3522 10.9071 43.533 12.0879 44.9896 12.0879C46.4462 12.0879 47.6271 10.9071 47.6271 9.45043C47.6271 7.99381 46.4462 6.81299 44.9896 6.81299ZM38.9772 9.45043C38.9772 6.12985 41.669 3.43799 44.9896 3.43799C48.3102 3.43799 51.0021 6.12985 51.0021 9.45043C51.0021 12.771 48.3102 15.4629 44.9896 15.4629C41.669 15.4629 38.9772 12.771 38.9772 9.45043Z" fill="#F7F7F7"/>
<path fill-rule="evenodd" clip-rule="evenodd" d="M7.96061 9.11906C10.2103 6.69236 13.4209 5.33252 17.2276 5.33252H33.58C34.512 5.33252 35.2675 6.08804 35.2675 7.02002C35.2675 7.952 34.512 8.70752 33.58 8.70752H17.2276C14.2586 8.70752 11.9806 9.74699 10.4357 11.4135C8.87732 13.0945 7.93799 15.5527 7.93799 18.5944V36.7797C7.93799 39.8299 8.86165 42.2808 10.4065 43.9521C11.9364 45.6073 14.2106 46.646 17.2276 46.646H36.5869C39.5581 46.646 41.8362 45.6101 43.3802 43.9487C44.9373 42.2733 45.8765 39.8212 45.8765 36.7797V20.9422C45.8765 20.0102 46.632 19.2547 47.564 19.2547C48.496 19.2547 49.2515 20.0102 49.2515 20.9422V36.7797C49.2515 40.5141 48.09 43.8388 45.8524 46.2463C43.6019 48.6679 40.3914 50.021 36.5869 50.021H17.2276C13.3865 50.021 10.1721 48.6708 7.92805 46.243C5.69882 43.8313 4.56299 40.5054 4.56299 36.7797V18.5944C4.56299 14.8603 5.72434 11.5313 7.96061 9.11906Z" fill="#F7F7F7"/>
</svg>
