<svg width="51" height="49" viewBox="0 0 51 49" fill="none" xmlns="http://www.w3.org/2000/svg">
<path d="M23.5368 12.2158V1.99284C23.5368 0.905835 24.4038 0 25.5003 0C26.482 0 27.3138 0.761153 27.4456 1.72528L27.4638 1.99284V12.2158L39.6525 12.2166C45.7215 12.2166 50.7076 17.1864 50.9876 23.3845L51 23.9345V36.7847C51 43.0263 46.1873 48.1496 40.2085 48.4373L39.678 48.45H11.322C5.253 48.45 0.290929 43.505 0.0123364 37.2842L0 36.7321V23.9082C0 17.6667 4.78867 12.5185 10.7661 12.2294L11.2965 12.2166L23.5368 12.2158L23.5365 28.5427L19.4565 24.3295C18.6915 23.5395 17.442 23.5395 16.677 24.3295C16.2945 24.7245 16.116 25.2511 16.116 25.7778C16.116 26.178 16.2302 26.5952 16.4718 26.9482L16.677 27.1997L24.0975 34.8888C24.4545 35.2838 24.9645 35.4945 25.5 35.4945C25.925 35.4945 26.35 35.3482 26.6865 35.0708L26.877 34.8888L34.2975 27.1997C35.0625 26.4098 35.0625 25.1195 34.2975 24.3295C33.602 23.6114 32.5062 23.5461 31.7379 24.1337L31.518 24.3295L27.4635 28.5427L27.4638 12.2158H23.5368Z" fill="#F7F7F7"/>
</svg>
