<svg width="160" height="160" viewBox="0 0 160 160" fill="none" xmlns="http://www.w3.org/2000/svg">
<rect width="160" height="160" rx="80" fill="#F7F7F7"/>
<path d="M77.3823 64.488V50.8573C77.3823 49.408 78.5383 48.2002 80.0003 48.2002C81.3093 48.2002 82.4184 49.2151 82.5941 50.5006L82.6183 50.8573V64.488L98.87 64.489C106.962 64.489 113.61 71.1155 113.983 79.3796L114 80.1129V97.2465C114 105.569 107.583 112.4 99.6113 112.783L98.904 112.8H61.096C53.004 112.8 46.3879 106.207 46.0164 97.9124L46 97.1763V80.0778C46 71.7557 52.3849 64.8915 60.3548 64.5061L61.062 64.489L77.3823 64.488L77.382 86.2571L71.942 80.6395C70.922 79.5863 69.256 79.5863 68.236 80.6395C67.726 81.1662 67.488 81.8684 67.488 82.5706C67.488 83.1043 67.6403 83.6604 67.9624 84.1312L68.236 84.4665L78.13 94.7186C78.606 95.2453 79.286 95.5261 80 95.5261C80.5667 95.5261 81.1333 95.3311 81.5819 94.9613L81.836 94.7186L91.73 84.4665C92.75 83.4132 92.75 81.6928 91.73 80.6395C90.8027 79.682 89.3416 79.595 88.3172 80.3784L88.024 80.6395L82.618 86.2571L82.6183 64.488H77.3823Z" fill="#365EFC"/>
</svg>
