<svg width="31" height="33" viewBox="0 0 31 33" fill="none" xmlns="http://www.w3.org/2000/svg">
<path d="M9.73392 1.47633C10.7104 1.50759 11.6559 1.68706 12.5719 2.015H12.6634C12.7254 2.046 12.7719 2.08026 12.8029 2.11126C13.1454 2.2271 13.4694 2.35763 13.7794 2.5371L14.3684 2.81446C14.6009 2.94498 14.8799 3.18808 15.0349 3.28761C15.1899 3.38387 15.3604 3.4834 15.4999 3.59597C17.2219 2.21079 19.3128 1.46027 21.4673 1.47633C22.4453 1.47633 23.4218 1.6218 24.3503 1.94974C30.0713 3.9076 32.1327 10.5154 30.4107 16.2911C29.4342 19.2426 27.8377 21.9362 25.7468 24.1372C22.7538 27.1882 19.4694 29.8966 15.9339 32.2297L15.5464 32.4761L15.1434 32.2134C11.5955 29.8966 8.29244 27.1882 5.27152 24.1209C3.19454 21.9199 1.59651 19.2426 0.604519 16.2911C-1.14696 10.5154 0.914517 3.9076 6.69751 1.91547C7.147 1.75232 7.61045 1.63811 8.07544 1.57448H8.26144C8.69698 1.50759 9.12943 1.47633 9.56343 1.47633H9.73392ZM23.5443 6.63229C22.9088 6.40224 22.2113 6.76282 21.9788 7.44807C21.7618 8.13332 22.1028 8.88383 22.7538 9.12693C23.7473 9.51851 24.4123 10.548 24.4123 11.6885V11.739C24.3828 12.1127 24.4898 12.4732 24.7068 12.7506C24.9238 13.028 25.2493 13.1895 25.5903 13.2238C26.2258 13.2058 26.7682 12.669 26.8147 11.9822V11.788C26.8612 9.50219 25.5453 7.43175 23.5443 6.63229Z" fill="#365EFC"/>
<path d="M1 15.15H9.57522C9.74768 15.15 9.90796 15.0611 9.99931 14.9149L11.3327 12.7797C11.5426 12.4436 12.0415 12.4736 12.2096 12.8325L14.6651 18.075C14.8415 18.4516 15.3739 18.4608 15.5631 18.0904L16.9263 15.4225C17.0118 15.2553 17.1838 15.15 17.3716 15.15H21" stroke="#F7F7F7" stroke-width="2" stroke-linecap="round"/>
</svg>
