<svg width="23" height="23" viewBox="0 0 23 23" fill="none" xmlns="http://www.w3.org/2000/svg">
<path d="M21.3527 1.64781C21.2859 1.58098 21.2066 1.52797 21.1194 1.4918C21.0321 1.45563 20.9386 1.43701 20.8442 1.43701C20.7497 1.43701 20.6562 1.45563 20.5689 1.4918C20.4817 1.52797 20.4024 1.58098 20.3356 1.64781L15.6278 6.35652L15.1454 5.87316C14.6056 5.33495 13.8744 5.03272 13.1122 5.03272C12.35 5.03272 11.6188 5.33495 11.079 5.87316L8.98477 7.96832L8.41517 7.39781C8.2803 7.26294 8.09738 7.18718 7.90665 7.18718C7.71592 7.18718 7.533 7.26294 7.39813 7.39781C7.26327 7.53268 7.1875 7.7156 7.1875 7.90633C7.1875 8.09706 7.26327 8.27998 7.39813 8.41484L7.96864 8.98445L5.87349 11.0787C5.60645 11.3457 5.39462 11.6627 5.25009 12.0115C5.10557 12.3604 5.03119 12.7343 5.03119 13.1119C5.03119 13.4895 5.10557 13.8634 5.25009 14.2122C5.39462 14.5611 5.60645 14.8781 5.87349 15.145L6.35684 15.6275L1.64813 20.3353C1.58135 20.4021 1.52838 20.4814 1.49224 20.5686C1.4561 20.6559 1.4375 20.7494 1.4375 20.8438C1.4375 20.9383 1.4561 21.0318 1.49224 21.119C1.52838 21.2063 1.58135 21.2856 1.64813 21.3523C1.783 21.4872 1.96592 21.563 2.15665 21.563C2.25109 21.563 2.34461 21.5444 2.43186 21.5082C2.51911 21.4721 2.59839 21.4191 2.66517 21.3523L7.37298 16.6436L7.85544 17.127C8.12242 17.394 8.43938 17.6059 8.78824 17.7504C9.13709 17.8949 9.511 17.9693 9.8886 17.9693C10.2662 17.9693 10.6401 17.8949 10.989 17.7504C11.3378 17.6059 11.6548 17.394 11.9218 17.127L14.016 15.0318L14.5856 15.6023C14.6524 15.6691 14.7317 15.7221 14.8189 15.7582C14.9062 15.7944 14.9997 15.813 15.0942 15.813C15.1886 15.813 15.2821 15.7944 15.3694 15.7582C15.4566 15.7221 15.5359 15.6691 15.6027 15.6023C15.6694 15.5356 15.7224 15.4563 15.7586 15.369C15.7947 15.2818 15.8133 15.1883 15.8133 15.0938C15.8133 14.9994 15.7947 14.9059 15.7586 14.8186C15.7224 14.7314 15.6694 14.6521 15.6027 14.5853L15.0322 14.0157L17.1273 11.9214C17.3944 11.6545 17.6062 11.3375 17.7507 10.9886C17.8952 10.6398 17.9696 10.2659 17.9696 9.88828C17.9696 9.51067 17.8952 9.13677 17.7507 8.78791C17.6062 8.43906 17.3944 8.12209 17.1273 7.85512L16.644 7.37266L21.3527 2.66484C21.4195 2.59809 21.4725 2.51882 21.5087 2.43157C21.5448 2.34431 21.5635 2.25078 21.5635 2.15633C21.5635 2.06187 21.5448 1.96834 21.5087 1.88109C21.4725 1.79383 21.4195 1.71456 21.3527 1.64781ZM10.9047 16.1127C10.6352 16.382 10.2697 16.5334 9.8886 16.5334C9.50752 16.5334 9.14203 16.382 8.87247 16.1127L6.89052 14.128C6.62114 13.8584 6.46982 13.493 6.46982 13.1119C6.46982 12.7308 6.62114 12.3653 6.89052 12.0957L8.98477 10.0006L12.9999 14.0157L10.9047 16.1127ZM16.1103 10.9071L14.016 12.9996L10.0009 8.98445L12.0961 6.89019C12.3656 6.62081 12.7311 6.46949 13.1122 6.46949C13.4933 6.46949 13.8588 6.62081 14.1283 6.89019L16.1103 8.86676C16.2445 9.00033 16.351 9.15909 16.4236 9.33393C16.4963 9.50877 16.5337 9.69625 16.5337 9.88558C16.5337 10.0749 16.4963 10.2624 16.4236 10.4372C16.351 10.6121 16.2445 10.7708 16.1103 10.9044V10.9071ZM7.94349 3.10238C7.8832 2.92153 7.89723 2.72413 7.98248 2.55362C8.06774 2.38311 8.21724 2.25345 8.3981 2.19316C8.57895 2.13288 8.77635 2.14691 8.94686 2.23216C9.11737 2.31742 9.24703 2.46692 9.30731 2.64777L10.0261 4.80402C10.0559 4.89357 10.0678 4.98813 10.0611 5.08228C10.0545 5.17644 10.0293 5.26836 9.98706 5.35278C9.94485 5.43721 9.88642 5.5125 9.81511 5.57435C9.7438 5.6362 9.661 5.68339 9.57145 5.71324C9.3906 5.77353 9.1932 5.7595 9.02269 5.67424C8.93826 5.63203 8.86298 5.5736 8.80113 5.50229C8.73928 5.43098 8.69209 5.34818 8.66224 5.25863L7.94349 3.10238ZM2.19349 8.39777C2.22333 8.30822 2.27052 8.22542 2.33237 8.15411C2.39421 8.08279 2.4695 8.02436 2.55393 7.98214C2.63836 7.93993 2.73028 7.91476 2.82444 7.90807C2.9186 7.90138 3.01315 7.91331 3.1027 7.94316L5.25895 8.66191C5.3485 8.69176 5.4313 8.73896 5.50261 8.80081C5.57392 8.86265 5.63235 8.93794 5.67456 9.02237C5.71678 9.1068 5.74195 9.19872 5.74864 9.29287C5.75533 9.38703 5.74341 9.48158 5.71356 9.57113C5.68371 9.66068 5.63652 9.74348 5.57467 9.81479C5.51282 9.8861 5.43754 9.94453 5.35311 9.98674C5.26868 10.029 5.17676 10.0541 5.0826 10.0608C4.98845 10.0675 4.8939 10.0556 4.80435 10.0257L2.64809 9.30699C2.55854 9.27715 2.47574 9.22995 2.40443 9.16811C2.33311 9.10626 2.27468 9.03097 2.23247 8.94654C2.19025 8.86211 2.16508 8.77019 2.15839 8.67604C2.1517 8.58188 2.16363 8.48732 2.19349 8.39777ZM20.8073 14.6024C20.7775 14.6919 20.7303 14.7747 20.6684 14.846C20.6066 14.9174 20.5313 14.9758 20.4469 15.018C20.3624 15.0602 20.2705 15.0854 20.1764 15.0921C20.0822 15.0988 19.9876 15.0868 19.8981 15.057L17.7418 14.3382C17.561 14.278 17.4115 14.1483 17.3262 13.9778C17.241 13.8073 17.227 13.6099 17.2872 13.429C17.3475 13.2482 17.4772 13.0987 17.6477 13.0134C17.8182 12.9282 18.0156 12.9141 18.1965 12.9744L20.3527 13.6932C20.4423 13.723 20.5251 13.7702 20.5964 13.832C20.6677 13.8939 20.7261 13.9692 20.7683 14.0536C20.8105 14.138 20.8357 14.23 20.8424 14.3241C20.8491 14.4183 20.8372 14.5128 20.8073 14.6024ZM15.0573 19.8978C15.1176 20.0786 15.1036 20.276 15.0183 20.4465C14.9331 20.617 14.7836 20.7467 14.6027 20.807C14.4219 20.8673 14.2245 20.8532 14.0539 20.768C13.8834 20.6827 13.7538 20.5332 13.6935 20.3524L12.9747 18.1961C12.9145 18.0153 12.9285 17.8179 13.0137 17.6474C13.099 17.4769 13.2485 17.3472 13.4293 17.2869C13.6102 17.2266 13.8076 17.2407 13.9781 17.3259C14.1486 17.4112 14.2783 17.5607 14.3386 17.7415L15.0573 19.8978Z" fill="#F7F7F7"/>
</svg>
