<svg width="32" height="39" viewBox="0 0 32 39" fill="none" xmlns="http://www.w3.org/2000/svg">
<path d="M5.49353 1C8.07976 0.999835 20.6552 1 20.6552 1C22.2069 1.28957 30.4827 10.6699 31 12.4648V32.7887C31 36.4367 26.8621 38 25.3103 38H6.17243C4.62071 38 1.00007 36.4367 1.00002 32.7887V6.21127C1.00002 3.8628 2.9073 1.00016 5.49353 1Z" fill="#365EFC"/>
<path d="M20.6552 1C20.6552 1 8.07976 0.999835 5.49353 1C2.9073 1.00016 1.00002 3.8628 1.00002 6.21127C1.00002 8.55974 0.999972 29.1408 1.00002 32.7887C1.00007 36.4367 4.62071 38 6.17243 38C7.72415 38 23.7586 38 25.3103 38C26.8621 38 31 36.4367 31 32.7887C31 29.1408 31 15.0704 31 12.4648M20.6552 1C20.6552 1 20.1379 6.73234 20.6552 8.29572C21.1724 9.8591 23.2414 12.4648 25.8276 12.4648C28.4138 12.4648 28.4138 12.4648 31 12.4648M20.6552 1C22.2069 1.28957 30.4827 10.6699 31 12.4648M8.2414 14.5492H16M8.75864 21.845H23.2414M8.75864 29.1408H18.5862" stroke="#F7F7F7" stroke-linecap="round"/>
</svg>
