<svg width="160" height="160" viewBox="0 0 160 160" fill="none" xmlns="http://www.w3.org/2000/svg">
<rect width="160" height="160" rx="80" fill="#F7F7F7"/>
<path d="M66.0054 43.0173C72.4174 41.0098 73.2994 33.4313 80.0054 33.0173C87.3598 32.5634 88.8766 41.1536 96.0054 43.0173C102.051 44.5978 106.754 39.6308 112.005 43.0173C119.021 47.542 112.789 56.3133 116.005 64.0173C118.885 70.9142 127.534 72.6148 126.505 80.0173C125.648 86.1851 118.953 86.532 116.005 92.0173C112.054 99.3714 119.021 108.493 112.005 113.017C106.754 116.404 101.981 111.192 96.0054 113.017C88.3057 115.369 88.0387 126.549 80.0054 126.017C72.5608 125.525 72.7916 116.118 66.0054 113.017C60.0776 110.309 54.4445 114.769 49.5054 110.517C43.9037 105.695 48.6829 98.6912 45.5054 92.0173C42.3986 85.4918 33.7522 84.7402 34.0054 77.5173C34.2481 70.596 42.3594 70.1872 45.5054 64.0173C49.2978 56.58 44.0039 49.0188 48.0039 45.0181C52.0039 41.0173 59.8561 44.9426 66.0054 43.0173Z" fill="#365EFC"/>
<path d="M69 78L79 89L100 68" stroke="#F7F7F7" stroke-width="5" stroke-linecap="round" stroke-linejoin="round"/>
</svg>
