<svg width="64" height="64" viewBox="0 0 64 64" fill="none" xmlns="http://www.w3.org/2000/svg">
<path fill-rule="evenodd" clip-rule="evenodd" d="M15.2192 28.4535H48.0129C46.9889 19.5192 42.3041 16.2168 31.6289 16.2168C20.9536 16.2168 16.2688 19.5192 15.2192 28.4535Z" fill="#EFC708"/>
<path fill-rule="evenodd" clip-rule="evenodd" d="M58.4067 32.2935H4.3138C3.2642 32.2935 2.3938 33.1639 2.3938 34.2135C2.3938 35.2631 3.2642 36.1335 4.3138 36.1335H5.901C6.0034 37.7719 6.1314 39.3591 6.3874 40.7415V40.8439C8.0002 50.4695 13.0434 55.4615 22.7202 57.0743C22.8226 57.0999 22.9506 57.0999 23.053 57.0999C23.9746 57.0999 24.7682 56.4343 24.9474 55.4871C25.101 54.4631 24.4098 53.4647 23.3602 53.2855C15.1938 51.9287 11.5074 48.2167 10.1762 40.1015C10.1506 40.0503 10.1506 40.0247 10.1506 39.9735C9.9458 38.8215 9.8434 37.5159 9.741 36.1335H15.117C15.9106 45.9127 20.5186 49.4967 31.6291 49.4967C42.7395 49.4967 47.3475 45.9127 48.1411 36.1335H52.9539C52.8771 37.5415 52.7491 38.8983 52.5443 40.1015V40.2039C51.1875 48.2679 47.4755 51.9287 39.3603 53.2855C38.3107 53.4647 37.6195 54.4631 37.7987 55.4871C37.9523 56.4343 38.7459 57.0999 39.6675 57.0999C39.7955 57.0999 39.8979 57.0999 40.0003 57.0743C49.7283 55.4615 54.7715 50.4183 56.3587 40.7159V40.6135C56.5891 39.2567 56.7171 37.7207 56.8195 36.1335H58.4067C59.4819 36.1335 60.3267 35.2631 60.3267 34.2135C60.3267 33.1639 59.4819 32.2935 58.4067 32.2935Z" fill="#E3EFF7"/>
<path fill-rule="evenodd" clip-rule="evenodd" d="M7.96178 25.6631C8.06674 25.681 8.1717 25.6887 8.2741 25.6887C9.19826 25.6887 10.0123 25.0205 10.1659 24.0784C11.4843 16.0298 15.3064 12.2103 23.3525 10.8919C24.3995 10.7204 25.1087 9.73476 24.9371 8.68772C24.7682 7.64068 23.7723 6.93412 22.733 7.10308C13.0127 8.69284 7.96946 13.7386 6.37714 23.4589C6.20562 24.5034 6.91474 25.4916 7.96178 25.6631Z" fill="#E3EFF7"/>
<path fill-rule="evenodd" clip-rule="evenodd" d="M39.3732 10.8927C47.4218 12.2111 51.2413 16.0307 52.5597 24.0767C52.7133 25.0214 53.5274 25.687 54.4516 25.687C54.5565 25.687 54.6589 25.6793 54.7639 25.6639C55.8109 25.4898 56.52 24.5017 56.3485 23.4572C54.7562 13.7369 49.713 8.69367 39.9927 7.10391C38.9482 6.92983 37.96 7.63895 37.7885 8.68856C37.617 9.73559 38.3261 10.7212 39.3732 10.8927Z" fill="#E3EFF7"/>
</svg>
