<svg width="48" height="48" viewBox="0 0 48 48" fill="none" xmlns="http://www.w3.org/2000/svg">
<path d="M45 10.5V22.5C45 22.8978 44.8419 23.2794 44.5606 23.5607C44.2793 23.842 43.8978 24 43.5 24C43.1022 24 42.7206 23.842 42.4393 23.5607C42.158 23.2794 42 22.8978 42 22.5V14.1206L26.5612 29.5613C26.4219 29.7007 26.2565 29.8114 26.0744 29.8868C25.8923 29.9623 25.6971 30.0012 25.5 30.0012C25.3029 30.0012 25.1077 29.9623 24.9256 29.8868C24.7435 29.8114 24.578 29.7007 24.4387 29.5613L18 23.1206L5.56123 35.5613C5.27977 35.8427 4.89803 36.0008 4.49998 36.0008C4.10193 36.0008 3.72019 35.8427 3.43873 35.5613C3.15727 35.2798 2.99915 34.898 2.99915 34.5C2.99915 34.102 3.15727 33.7202 3.43873 33.4387L16.9387 19.9387C17.078 19.7993 17.2435 19.6886 17.4256 19.6132C17.6077 19.5377 17.8029 19.4988 18 19.4988C18.1971 19.4988 18.3923 19.5377 18.5744 19.6132C18.7565 19.6886 18.9219 19.7993 19.0612 19.9387L25.5 26.3794L39.8794 12L31.5 12C31.1022 12 30.7206 11.842 30.4393 11.5607C30.158 11.2794 30 10.8978 30 10.5C30 10.1022 30.158 9.72064 30.4393 9.43934C30.7206 9.15804 31.1022 9 31.5 9L43.5 9C43.8978 9 44.2793 9.15804 44.5606 9.43934C44.8419 9.72064 45 10.1022 45 10.5Z" fill="#F7F7F7"/>
</svg>
