<svg width="54" height="55" viewBox="0 0 54 55" fill="none" xmlns="http://www.w3.org/2000/svg">
<path fill-rule="evenodd" clip-rule="evenodd" d="M26.1669 9.59834C16.3252 9.59834 8.34693 17.7244 8.34693 27.7483C8.34693 37.7723 16.3252 45.8983 26.1669 45.8983C36.0086 45.8983 43.9869 37.7723 43.9869 27.7483C43.9869 17.7244 36.0086 9.59834 26.1669 9.59834ZM5.10693 27.7483C5.10693 15.9018 14.5358 6.29834 26.1669 6.29834C37.798 6.29834 47.2269 15.9018 47.2269 27.7483C47.2269 39.5948 37.798 49.1983 26.1669 49.1983C14.5358 49.1983 5.10693 39.5948 5.10693 27.7483Z" fill="#365EFC"/>
<path fill-rule="evenodd" clip-rule="evenodd" d="M19.5397 7.88347C20.3625 7.52561 21.3144 7.91488 21.6658 8.75295C21.8989 9.309 22.1388 9.82743 22.3764 10.3378C22.3909 10.369 22.4054 10.4002 22.42 10.4314C22.6386 10.9008 22.861 11.3783 23.0526 11.8374C23.4528 12.7968 23.823 13.907 23.7336 15.106M19.5397 7.88347C18.7169 8.24133 18.3347 9.21082 18.6861 10.0489L19.5397 7.88347ZM18.6861 10.0489C18.9468 10.6708 19.2113 11.2416 19.4489 11.7518L18.6861 10.0489ZM19.4489 11.7518L19.4826 11.8241L19.4489 11.7518ZM19.4826 11.8241C19.7107 12.3141 19.9061 12.7337 20.0706 13.128L19.4826 11.8241ZM20.0706 13.128C20.4007 13.9191 20.5159 14.4092 20.5067 14.7792L20.0706 13.128ZM20.5067 14.7792C20.5007 14.7947 20.4924 14.8151 20.4811 14.8407C20.4283 14.9604 20.3405 15.127 20.2127 15.3386C19.9576 15.7607 19.6075 16.2563 19.2364 16.7473C18.8696 17.2327 18.5026 17.6871 18.2256 18.0218C18.0877 18.1885 17.9733 18.324 17.8941 18.4171L17.8034 18.5232L17.7807 18.5496L17.7755 18.5556C17.6229 18.7311 17.5078 18.9389 17.4398 19.1628L18.9875 19.6504C17.4398 19.1628 17.4398 19.1628 17.4398 19.1628L17.4388 19.1661L17.4378 19.1696L17.4355 19.1773L17.4301 19.1958L17.4165 19.2449C17.4063 19.2829 17.3939 19.3314 17.3804 19.3897C17.3534 19.5064 17.3215 19.6632 17.2926 19.8551C17.2349 20.2382 17.1883 20.7673 17.2188 21.3998C17.2804 22.6745 17.656 24.3579 18.8564 26.0744C18.9097 26.1506 18.9693 26.222 19.0345 26.288C19.9623 27.2262 20.3844 27.8056 20.5668 28.1811C20.7013 28.4579 20.6856 28.5684 20.648 28.7134C20.5707 29.0113 20.3869 29.3575 19.9674 30.1432C19.7091 30.6269 19.4051 31.2061 19.0994 31.9081C18.7559 31.8007 18.3476 31.6545 17.902 31.4818C16.8099 31.0585 15.6867 30.5537 15.0619 30.273C14.9126 30.2059 14.7918 30.1516 14.7067 30.1143L14.6688 30.0982C14.1899 29.9027 13.8646 29.601 13.5519 29.1768C13.3853 28.9508 13.232 28.7037 13.051 28.4044C13.0346 28.3772 13.0178 28.3494 13.0006 28.3209C12.8415 28.0574 12.6508 27.7412 12.4422 27.4454C11.9585 26.7593 11.2479 25.9868 10.0776 25.6452C8.96066 25.3191 7.68941 25.4641 6.22507 25.95C5.37438 26.2322 4.90942 27.1635 5.18656 28.0299C5.4637 28.8964 6.378 29.3699 7.22869 29.0877C8.40251 28.6982 8.95148 28.7493 9.18497 28.8175C9.36514 28.8701 9.53512 28.9797 9.8104 29.3702C9.94767 29.5649 10.0776 29.7798 10.2496 30.0644C10.2636 30.0875 10.2778 30.1112 10.2924 30.1353C10.4736 30.4347 10.6956 30.7983 10.9609 31.1582C11.5087 31.9013 12.2678 32.6676 13.4417 33.1524C13.5041 33.18 13.5961 33.2214 13.7125 33.2737C14.3127 33.5437 15.5614 34.1055 16.7497 34.566C17.4626 34.8424 18.2291 35.1125 18.8647 35.2612C19.1654 35.3316 19.5525 35.4036 19.932 35.3898C20.1195 35.3829 20.4223 35.3524 20.7422 35.2051C21.0947 35.0427 21.5042 34.7143 21.7004 34.1553C22.0579 33.1588 22.4502 32.4005 22.8137 31.7198C22.8447 31.6617 22.8767 31.6022 22.9093 31.5416C23.2233 30.9577 23.5975 30.2617 23.7805 29.5564C24.0221 28.6248 23.946 27.6959 23.4708 26.7177C23.0588 25.8695 22.3589 25.0103 21.4219 24.0526C20.6959 22.9696 20.4899 21.9625 20.4549 21.2377C20.4381 20.8899 20.4609 20.6045 20.4878 20.4067C20.5513 20.3311 20.6237 20.2444 20.7032 20.1484C20.9996 19.7901 21.399 19.2961 21.804 18.7601C22.2048 18.2298 22.6319 17.6311 22.972 17.0682C23.1418 16.7873 23.3061 16.4886 23.4364 16.1933C23.5548 15.925 23.7015 15.5361 23.7336 15.106" fill="#365EFC"/>
<path fill-rule="evenodd" clip-rule="evenodd" d="M38.8865 20.8141C40.0675 21.3006 40.8215 22.0699 41.3589 22.8219C41.6179 23.1843 41.8307 23.5488 42.0027 23.8475C42.0221 23.8812 42.0409 23.9139 42.0592 23.9457C42.2147 24.2162 42.3309 24.4182 42.455 24.6029C42.7087 24.9806 42.8529 25.0646 42.9981 25.107C43.2086 25.1684 43.7428 25.2215 44.9266 24.8287C45.7773 24.5464 46.6916 25.02 46.9688 25.8864C47.2459 26.7529 46.781 27.6841 45.9303 27.9664C44.476 28.4489 43.2123 28.6023 42.1057 28.2794C40.9338 27.9374 40.2419 27.1523 39.7811 26.4665C39.5877 26.1787 39.4104 25.8698 39.2638 25.6143C39.2447 25.5809 39.2261 25.5485 39.208 25.5172C39.0387 25.2231 38.8957 24.9827 38.7394 24.764C38.4488 24.3575 38.1391 24.0643 37.6645 23.8704L37.627 23.8545C37.3511 23.7336 35.7374 23.1955 34.1042 22.7724C33.4145 22.5937 32.7802 22.4513 32.2881 22.3724C31.9887 23.0709 31.7105 23.578 31.4842 23.9632C31.5829 24.0593 31.6959 24.1677 31.8281 24.2946C31.8995 24.3631 31.9765 24.4369 32.0599 24.5172C32.3908 24.8356 32.795 25.228 33.2785 25.7164C34.4922 26.8629 35.2683 28.0323 35.4912 29.31C35.7214 30.6298 35.3042 31.7345 34.8374 32.5836C34.6069 33.0028 34.3415 33.4002 34.1049 33.7483C34.0629 33.81 34.0219 33.8701 33.9818 33.929C33.7832 34.2201 33.6055 34.4807 33.4375 34.7527C33.0403 35.3956 32.8126 35.9269 32.7622 36.4717M31.157 24.5222C31.1567 24.5223 31.1588 24.5173 31.1642 24.5066C31.16 24.5167 31.1573 24.522 31.157 24.5222ZM38.8865 20.8141C38.3379 20.579 36.5444 19.9994 34.9029 19.5742C34.0601 19.3559 33.176 19.1564 32.4586 19.0641C32.1139 19.0197 31.7127 18.9867 31.3419 19.0225C31.1615 19.0399 30.8842 19.0822 30.5957 19.2148C30.3036 19.349 29.8404 19.6561 29.6248 20.2702C29.2679 21.2655 28.9411 21.8651 28.7023 22.2714C28.6732 22.321 28.6376 22.3803 28.5992 22.4442C28.5089 22.5947 28.4036 22.7701 28.333 22.9012C28.2252 23.1017 28.0265 23.4935 27.9978 23.9945C27.9649 24.5706 28.1631 25.0335 28.3782 25.3663C28.566 25.6568 28.8114 25.9157 29.0176 26.1234C29.1866 26.2938 29.3965 26.4952 29.6295 26.7187C29.6963 26.7828 29.7649 26.8486 29.8351 26.9161C30.1602 27.2289 30.5498 27.6073 31.016 28.0788C31.0299 28.0929 31.0441 28.1067 31.0586 28.1203C32.0229 29.027 32.2505 29.5972 32.3011 29.8873C32.3457 30.1429 32.3008 30.443 32.0104 30.9713C31.8622 31.2408 31.6753 31.5252 31.441 31.8699C31.4059 31.9216 31.3695 31.9749 31.3321 32.0297C31.1334 32.3208 30.9063 32.6535 30.6952 32.9951C30.187 33.8177 29.6561 34.8676 29.5365 36.1628L29.5365 36.1629C29.4741 36.8382 29.2867 37.5367 29.0287 38.3518C28.9728 38.5284 28.9121 38.7148 28.8489 38.9085C28.639 39.5521 28.4028 40.2764 28.232 40.9908C27.7525 42.9961 27.6902 45.2804 29.3377 47.7725C29.8375 48.5284 30.8442 48.7285 31.5863 48.2196C32.3285 47.7106 32.525 46.6852 32.0253 45.9293C31.0329 44.4282 31.0452 43.1718 31.38 41.7717C31.5165 41.2006 31.6935 40.6572 31.8929 40.045C31.9636 39.8282 32.037 39.6027 32.1125 39.3643C32.3845 38.5047 32.6652 37.5226 32.7622 36.4718" fill="#365EFC"/>
</svg>
